PathFileType	4	(X/Y/Z)	C:/Users/beibeiliu/ov580/test_trc/User1\sequence.29_training_dense_right.trc
DataRate	CameraRate	NumFrames	NumMarkers	Units	OrigDataRate	OrigDataStartFrame	OrigNumFrames
120	120	16	19	mm	120	143	228
Frame#	Time	ThumbCMC			ThumbMCP			ThumbIP			ThumbTip			IndexMCP			IndexPIP			IndexTip			MiddleMCP			MiddlePIP			MiddleTip			RingMCP			RingPIP			RingTip			PinkyMCP			PinkyPIP			PinkyTip			BackHand1			BackHand2			BackHand3	
		X0	Y0	Z0	X1	Y1	Z1	X2	Y2	Z2	X3	Y3	Z3	X4	Y4	Z4	X5	Y5	Z5	X6	Y6	Z6	X7	Y7	Z7	X8	Y8	Z8	X9	Y9	Z9	X10	Y10	Z10	X11	Y11	Z11	X12	Y12	Z12	X13	Y13	Z13	X14	Y14	Z14	X15	Y15	Z15	X16	Y16	Z16	X17	Y17	Z17	X18	Y18	Z18	
142	1.18333	146.939	-14.8225	68.7741	125.982	-30.8826	42.4526	120.437	-38.6544	14.1573	116.932	-50.4068	-3.41884	177.701	1.64015	-6.67927	176.935	0.921481	-31.3387	180.838	-0.715756	-56.2531	189.862	-19.7433	-16.6466	178.29	-31.2983	-40.7673	158.664	-53.1443	-63.6367	213.569	-31.3712	-10.2581	213.432	-30.4467	-31.5749	215.039	-33.6011	-61.6791	227.501	-53.4585	18.359	237.289	-50.628	5.23245	259.194	-44.5056	-1.85627	212.57	-30.1653	54.6142	218.98	-32.0909	82.7197	190.609	-3.56351	66.9604	
143	1.19167	150.2	-15.759	68.9346	128.17	-31.4352	43.4961	121.379	-39.5251	13.1275	118.82	-49.8777	-8.72619	176.235	1.30645	-4.55633	176.46	-0.29799	-34.4322	183.064	-5.43072	-57.4878	189.284	-20.4926	-14.346	175.669	-33.577	-40.1687	154.448	-54.7755	-60.0511	212.101	-31.7823	-5.03252	214.325	-34.2983	-37.4706	212.098	-34.7298	-59.271	225.979	-54.2611	20.534	237.52	-53.4928	5.90559	255.528	-40.2217	-5.03911	214.341	-26.9904	50.1715	214.607	-32.046	88.1635	190.256	-6.72653	66.5232	
144	1.2	149.263	-17.5788	74.541	128.086	-33.1102	42.4045	125.118	-40.7557	14.8867	118.731	-51.2008	-6.49338	176.551	0.866406	-7.93221	179.189	-3.79176	-34.0986	179.374	-4.35726	-55.6925	185.976	-19.6984	-12.456	171.618	-35.5898	-39.7381	153.955	-55.049	-56.7046	211.282	-31.9798	-8.72921	211.899	-34.6136	-32.3602	210.98	-36.2323	-61.2157	228.03	-54.5232	19.1541	240.038	-50.317	2.48637	252.787	-41.6546	-4.69719	213.363	-29.9563	49.7498	214.923	-31.3769	88.8339	192.189	-4.7105	66.5102	
145	1.20833	149.264	-18.6128	72.5753	131.617	-34.1414	39.6529	124.35	-42.0845	13.9995	121.283	-51.7388	-8.47976	178.149	-2.16651	-7.77137	178.326	-3.67147	-30.9273	180.205	-6.46413	-56.6556	187.518	-20.5818	-13.1139	172.056	-34.5351	-38.6501	155.18	-57.1397	-55.8338	210.411	-30.7997	-7.98244	210.089	-32.5007	-35.612	209.066	-37.1915	-60.5625	225.969	-52.2185	18.6413	237.022	-50.5502	4.39213	256.472	-43.8819	-3.1968	216.144	-32.158	53.7191	215.412	-32.0453	86.9739	193.208	-7.02792	68.0666	
146	1.21667	149.075	-18.1463	69.2421	132.777	-35.1937	42.2497	127.615	-41.7773	11.835	123.912	-52.967	-7.04472	175.975	0.769579	-9.03084	175.976	-2.95399	-29.3927	182.943	-10.4576	-58.2068	186.14	-21.464	-13.0597	171.493	-36.3348	-38.9657	153.131	-59.8258	-57.4519	210.272	-32.3176	-6.12331	208.956	-33.3102	-35.8057	207.554	-35.8763	-59.0276	228.95	-51.8729	15.7561	238.988	-48.9195	2.11703	255.39	-38.476	-7.8732	214.242	-26.6244	51.1974	214.819	-33.0161	85.2203	189.921	-7.7106	69.9863	
147	1.225	146.889	-18.5022	70.7392	131.955	-36.3673	42.3142	128.222	-42.7282	14.2322	126.024	-52.5088	-7.66215	177.906	-2.48717	-4.68125	179.153	-5.29803	-30.5483	182.338	-11.0209	-57.6503	187.362	-23.5745	-15.2898	169.474	-36.3842	-40.3169	150.528	-57.0127	-56.9252	208.453	-31.1475	-6.54004	208.833	-33.1409	-33.1284	206.828	-35.3714	-58.5123	224.182	-50.2776	18.5716	237.093	-50.7004	4.51751	254.812	-40.8771	-2.75524	213.436	-27.9466	54.4211	213.037	-31.0346	84.5296	190.163	-8.6588	70.9867	
148	1.23333	148.104	-19.7732	72.2643	130.298	-36.0997	40.373	126.652	-41.946	11.178	123.669	-52.7374	-8.39367	176.46	-0.156807	-6.45642	178.895	-5.8888	-33.0168	180.7	-8.86189	-57.966	184.577	-21.6737	-14.2534	172.906	-34.7508	-36.7073	153.822	-58.1711	-56.3752	207.495	-29.8007	-8.02289	209.363	-32.8053	-32.4213	204.286	-34.2268	-57.6423	227.84	-50.0148	16.6814	240.576	-50.8609	4.13434	256.69	-39.3967	-6.86907	213.566	-29.5589	52.5374	213.151	-30.6865	87.426	191.169	-7.22571	71.5089	
149	1.24167	145.093	-19.9396	73.6285	131.426	-36.9632	45.1305	125.127	-43.1945	12.4591	127.553	-54.2221	-8.00551	177.681	-2.41037	-3.82091	178.416	-6.50583	-28.2401	182.685	-11.1608	-52.9734	185.072	-20.4791	-11.449	171.066	-34.3014	-36.1449	155.556	-57.2847	-57.0509	206.959	-29.7119	-6.24875	207.292	-32.4009	-30.9163	206.348	-34.3597	-60.4797	227.284	-49.9915	16.0066	239.401	-49.1517	4.28302	256.395	-38.9409	-6.09073	213.081	-27.616	54.8297	215.303	-31.3321	87.6133	186.995	-5.16949	69.9438	
150	1.25	146.116	-20.7503	74.8189	131.323	-37.0498	41.9527	126.401	-44.1277	16.05	122.886	-53.52	-8.55663	173.776	-0.466191	-3.36403	174.58	-2.28213	-28.0406	178.742	-7.25	-58.1658	185.814	-21.7657	-13.6242	172.408	-35.8295	-39.0679	157.321	-57.0669	-59.0152	209.003	-30.9578	-4.44058	208.689	-31.5499	-34.7191	205.809	-33.3757	-55.6699	225.559	-48.8925	18.6623	237.17	-49.1111	7.41587	256.679	-39.4557	-3.43793	213.01	-25.7269	53.0871	213.647	-28.673	86.1871	187.643	-6.15642	69.1543	
151	1.25833	144.489	-19.9572	72.6925	127.372	-37.4507	44.7329	126.831	-42.9988	15.3301	121.718	-53.5359	-5.89324	171.227	0.476556	-2.15267	175.827	-3.36385	-27.3584	180.04	-5.68837	-57.5338	188.497	-19.5069	-10.6458	176.223	-30.4941	-38.3261	161.382	-48.73	-59.8791	212.776	-30.808	-7.95477	212.462	-30.4522	-33.4462	210.447	-33.7417	-54.3696	230.234	-50.2991	21.8503	240.829	-47.0095	6.85069	258.798	-38.2604	-4.16179	211.62	-25.3678	54.8819	215.545	-30.7173	90.8964	185.525	-6.44599	70.2701	
152	1.26667	146.267	-23.6673	74.5569	126.862	-38.7754	47.6875	118.762	-44.1556	15.2665	113.889	-52.3476	-3.37345	172.326	-1.85747	-1.63535	173.392	-0.570952	-28.4281	177.891	-2.48077	-54.9405	189.557	-18.2382	-15.2307	178.456	-26.9567	-40.3266	172.31	-46.3868	-65.2661	212.976	-28.5827	-2.35575	211.956	-26.6896	-27.5708	212.052	-28.9236	-53.3038	228.362	-47.4125	21.5557	245.188	-46.4827	7.11741	257.463	-35.7229	-1.54652	215.631	-26.3702	56.4429	209.602	-28.2122	91.4849	182.134	-7.30632	72.5027	
153	1.275	143.049	-24.3124	77.3002	124.642	-38.4839	48.1442	115.499	-42.847	18.055	106.523	-52.6304	0.33824	166.206	0.692808	-3.6798	170.09	1.52673	-28.4612	175.778	0.690056	-53.4833	189.633	-14.0923	-9.11125	185.708	-24.0685	-42.5311	178.169	-36.3312	-70.4073	212.934	-23.0767	-3.73454	216.181	-22.8033	-29.2375	219.412	-24.1883	-53.5603	230.66	-44.2863	21.9051	244.441	-42.32	7.63616	258.946	-28.7002	-3.91313	212.832	-24.3174	55.2355	212.08	-24.4894	87.6672	181.656	-8.28344	72.4255	
154	1.28333	142.51	-26.6655	75.5332	123.551	-40.1282	47.8023	113.945	-45.9709	21.3133	102.961	-53.3914	1.23323	166.19	-1.5447	-6.60229	166.028	2.1857	-31.1973	172.53	1.48338	-55.8306	192.501	-12.7732	-11.1685	191.267	-17.354	-38.845	188.67	-25.404	-71.5367	214.897	-21.5843	0.98347	221.667	-19.6954	-24.8322	221.553	-16.3019	-50.5451	231.693	-43.3619	23.7293	243.264	-40.1919	11.0207	258.506	-27.0009	2.57637	207.944	-23.6317	56.6831	211.26	-25.2708	89.4024	177.521	-5.83062	69.9878	
155	1.29167	141.674	-28.5561	75.657	121.702	-42.3298	48.3878	110.272	-47.8656	21.568	103.803	-56.3784	2.99149	164.79	-3.21847	-5.82799	166.079	-1.55446	-32.7991	167.63	0.606781	-53.1446	191.026	-8.54387	-12.0798	196.111	-11.5875	-40.792	196.451	-15.0064	-70.9609	217.095	-20.8026	3.34983	223.876	-13.5737	-24.2534	227.089	-10.0271	-50.186	231.774	-40.3611	25.6601	246.623	-36.4307	10.6466	260.135	-21.403	1.17541	210.805	-21.2629	53.3969	209.079	-23.8655	88.7374	176.586	-8.87971	69.9214	
156	1.3	137.603	-30.0303	72.5792	122.549	-47.241	50.5038	111.294	-53.5262	24.636	99.6478	-61.0606	7.01597	160.439	-5.07011	-6.44663	162.469	-2.14762	-33.8831	165.515	-1.95009	-55.4708	193.387	-8.48677	-10.4206	192.49	-6.23704	-35.1562	202.145	-7.29554	-68.7941	214.366	-14.6381	0.340574	221.898	-8.25073	-24.8892	227.851	-4.25064	-47.9615	232.512	-38.596	25.1565	242.917	-32.8649	10.5433	261.176	-17.6652	1.75277	207.058	-20.4084	52.3784	204.405	-21.5935	88.3018	175.241	-7.09	67.7287	
157	1.30833	134.569	-33.1661	73.6225	119.909	-48.7473	44.3736	108.562	-55.8671	20.3653	99.978	-65.0775	2.80104	160.029	-8.91255	-4.72758	157.505	-5.01	-32.7752	162.253	-3.86107	-59.9833	190.124	-5.47307	-11.7845	195.957	-3.32744	-38.6344	203.153	-0.492928	-67.14	216.586	-15.9023	3.93651	221.553	-5.94954	-19.5603	231.669	-0.70571	-43.1664	232.454	-35.8019	25.5696	242.149	-29.9905	11.3193	256.967	-16.8484	2.89126	204.817	-19.3172	57.2126	201.753	-17.4363	89.0225	168.709	-8.65542	66.0786	
